<svg width="43" height="43" viewBox="0 0 43 43" fill="none" xmlns="http://www.w3.org/2000/svg">
<rect width="43" height="43" fill="#38D3E8"/>
<path d="M25.843 18.6661V18.7131H25.8901H29.7319V29.8272C29.7319 30.0961 29.6251 30.3541 29.4349 30.5442C29.2447 30.7344 28.9868 30.8413 28.7178 30.8413H15.2845C15.0156 30.8413 14.7576 30.7344 14.5674 30.5442C14.3773 30.3541 14.2704 30.0961 14.2704 29.8272V18.7131H16.9541V19.7302H15.3345H15.2875V19.7772V29.7772V29.8242H15.3345H28.6678H28.7149V29.7772V19.7772V19.7302H28.6678H25.8901H25.843V19.7772V20.8883C25.843 21.0232 25.7894 21.1525 25.6941 21.2479C25.5987 21.3432 25.4694 21.3968 25.3345 21.3968C25.1996 21.3968 25.0703 21.3432 24.9749 21.2479C24.8796 21.1525 24.826 21.0232 24.826 20.8883V17.0272C24.826 16.278 24.5284 15.5595 23.9986 15.0297C23.4689 14.5 22.7504 14.2024 22.0012 14.2024C21.252 14.2024 20.5335 14.5 20.0037 15.0297C19.474 15.5595 19.1763 16.278 19.1763 17.0272V18.6661V18.7131H19.2234H23.6208V19.7302H19.2234H19.1763V19.7772V20.9161C19.1763 21.0509 19.1228 21.1803 19.0274 21.2757C18.932 21.371 18.8027 21.4246 18.6678 21.4246C18.533 21.4246 18.4036 21.371 18.3083 21.2757C18.2129 21.1803 18.1593 21.0509 18.1593 20.9161V17.0272C18.1593 16.5227 18.2587 16.0231 18.4518 15.557C18.6448 15.0909 18.9278 14.6673 19.2846 14.3106C19.6413 13.9538 20.0648 13.6709 20.531 13.4778C20.9971 13.2847 21.4966 13.1853 22.0012 13.1853C22.5057 13.1853 23.0053 13.2847 23.4714 13.4778C23.9375 13.6709 24.361 13.9538 24.7178 14.3106C25.0745 14.6673 25.3575 15.0909 25.5506 15.557C25.7436 16.0231 25.843 16.5227 25.843 17.0272V18.6661Z" fill="white" stroke="white" stroke-width="0.0940828"/>
</svg>
