<svg width="82" height="82" viewBox="0 0 82 82" fill="none" xmlns="http://www.w3.org/2000/svg">
<rect width="82" height="82" fill="#38D3E8"/>
<path d="M45.2611 37.3333V37.4333H45.3611H50.1222V51.2847C50.1222 51.61 49.993 51.9219 49.7631 52.1519C49.5331 52.3819 49.2211 52.5111 48.8959 52.5111H32.1042C31.7789 52.5111 31.467 52.3819 31.237 52.1519C31.007 51.9219 30.8778 51.61 30.8778 51.2847V37.4333H34.15V38.6222H32.1667H32.0667V38.7222V51.2222V51.3222H32.1667H48.8334H48.9334V51.2222V38.7222V38.6222H48.8334H45.3611H45.2611V38.7222V40.1111C45.2611 40.2687 45.1985 40.4199 45.087 40.5314C44.9755 40.6429 44.8244 40.7055 44.6667 40.7055C44.509 40.7055 44.3578 40.6429 44.2464 40.5314C44.1349 40.4199 44.0722 40.2687 44.0722 40.1111V35.2847C44.0722 34.3373 43.6959 33.4287 43.026 32.7588C42.356 32.0888 41.4474 31.7125 40.5 31.7125C39.5526 31.7125 38.644 32.0888 37.9741 32.7588C37.3042 33.4287 36.9278 34.3373 36.9278 35.2847V37.3333V37.4333H37.0278H42.4834V38.6222H37.0278H36.9278V38.7222V40.1458C36.9278 40.3035 36.8652 40.4547 36.7537 40.5661C36.6422 40.6776 36.491 40.7403 36.3334 40.7403C36.1757 40.7403 36.0245 40.6776 35.913 40.5661C35.8015 40.4547 35.7389 40.3035 35.7389 40.1458V35.2847C35.7389 34.6595 35.8621 34.0403 36.1013 33.4627C36.3406 32.8851 36.6913 32.3602 37.1334 31.9181C37.5755 31.476 38.1004 31.1253 38.678 30.886C39.2557 30.6467 39.8748 30.5236 40.5 30.5236C41.1253 30.5236 41.7444 30.6467 42.322 30.886C42.8997 31.1253 43.4245 31.476 43.8666 31.9181C44.3088 32.3602 44.6595 32.8851 44.8987 33.4627C45.138 34.0403 45.2611 34.6595 45.2611 35.2847V37.3333Z" fill="white" stroke="white" stroke-width="0.2"/>
</svg>
