<svg width="20" height="24" viewBox="0 0 20 24" fill="none" xmlns="http://www.w3.org/2000/svg">
<path d="M14.9542 7.97281V5.9338C14.9542 5.29842 14.8347 4.66926 14.6024 4.08225C14.3702 3.49523 14.0298 2.96186 13.6007 2.51258C13.1716 2.06329 12.6622 1.70691 12.1015 1.46376C11.5408 1.22061 10.9399 1.09546 10.3331 1.09546C9.72621 1.09546 9.1253 1.22061 8.56464 1.46376C8.00398 1.70691 7.49455 2.06329 7.06544 2.51258C6.63633 2.96186 6.29594 3.49523 6.06371 4.08225C5.83147 4.66926 5.71194 5.29842 5.71194 5.9338V10.7721C5.71194 10.9555 5.7815 11.1313 5.9053 11.2609C6.0291 11.3905 6.19702 11.4633 6.3721 11.4633C6.54719 11.4633 6.7151 11.3905 6.83891 11.2609C6.96271 11.1313 7.03226 10.9555 7.03226 10.7721V9.3552H12.3135V7.97281H7.03226V5.9338C7.03226 5.01722 7.38003 4.13819 7.99905 3.49007C8.61807 2.84195 9.45764 2.47784 10.3331 2.47784C11.2085 2.47784 12.0481 2.84195 12.6671 3.49007C13.2861 4.13819 13.6339 5.01722 13.6339 5.9338V10.7376C13.6339 10.9209 13.7034 11.0967 13.8272 11.2263C13.951 11.356 14.1189 11.4288 14.294 11.4288C14.4691 11.4288 14.637 11.356 14.7608 11.2263C14.8846 11.0967 14.9542 10.9209 14.9542 10.7376V9.3552H18.255V21.7966H2.41114V9.3552H4.39162V7.97281H1.09082V21.8589C1.09082 22.209 1.22367 22.5448 1.46013 22.7924C1.6966 23.0399 2.01731 23.179 2.35173 23.179H18.3144C18.6488 23.179 18.9695 23.0399 19.206 22.7924C19.4425 22.5448 19.5753 22.209 19.5753 21.8589V7.97281H14.9542Z" fill="#2B2E34"/>
<path d="M7.03255 8.03274H12.2538V9.29512H7.03255H6.97255V9.35512V10.7721C6.97255 10.9403 6.90868 11.1012 6.7958 11.2194C6.68302 11.3375 6.53065 11.4033 6.37239 11.4033C6.21413 11.4033 6.06176 11.3375 5.94897 11.2194C5.8361 11.1012 5.77223 10.9403 5.77223 10.7721V5.93372C5.77223 5.30585 5.89035 4.68419 6.11978 4.10424C6.34922 3.52431 6.68543 2.99754 7.10911 2.55394C7.53279 2.11036 8.03561 1.75864 8.5888 1.51873C9.14198 1.27882 9.73477 1.15539 10.3334 1.15539C10.9319 1.15539 11.5247 1.27882 12.0779 1.51873C12.6311 1.75864 13.1339 2.11036 13.5576 2.55394C13.9813 2.99754 14.3175 3.52431 14.5469 4.10424C14.7764 4.68419 14.8945 5.30585 14.8945 5.93372V7.97274V8.03274H14.9545H19.5156V21.8588C19.5156 22.1939 19.3884 22.5147 19.1629 22.7508C18.9375 22.9869 18.6323 23.1189 18.3147 23.1189H2.35201C2.03442 23.1189 1.72925 22.9869 1.5038 22.7508C1.27826 22.5147 1.1511 22.1939 1.1511 21.8588V8.03274H4.33191V9.29512H2.41142H2.35142V9.35512V21.7966V21.8566H2.41142H18.2553H18.3153V21.7966V9.35512V9.29512H18.2553H14.9545H14.8945V9.35512V10.7375C14.8945 10.9058 14.8306 11.0666 14.7177 11.1848C14.6049 11.3029 14.4526 11.3687 14.2943 11.3687C14.1361 11.3687 13.9837 11.3029 13.8709 11.1848C13.758 11.0666 13.6942 10.9058 13.6942 10.7375V5.93372C13.6942 5.0021 13.3407 4.10811 12.7108 3.44855C12.0807 2.7889 11.2256 2.41777 10.3334 2.41777C9.4411 2.41777 8.58598 2.7889 7.95594 3.44855C7.32599 4.10811 6.97255 5.0021 6.97255 5.93372V7.97274V8.03274H7.03255ZM19.7267 7.87735V7.81735H19.6667H15.1056V5.93372C15.1056 5.27831 14.9823 4.62926 14.7427 4.0236C14.5031 3.41793 14.1518 2.86744 13.7088 2.40361C13.2658 1.93978 12.7397 1.57169 12.1605 1.32051C11.5813 1.06932 10.9604 0.94 10.3334 0.94C9.70626 0.94 9.08538 1.06932 8.50619 1.32051C7.927 1.57169 7.40092 1.93978 6.95791 2.40361C6.51491 2.86744 6.16364 3.41793 5.92403 4.0236C5.68442 4.62926 5.56112 5.27831 5.56112 5.93372V10.7721C5.56112 10.9957 5.64596 11.2107 5.79777 11.3697C5.94968 11.5287 6.15631 11.6186 6.37239 11.6186C6.58846 11.6186 6.79509 11.5287 6.947 11.3697C7.09882 11.2107 7.18365 10.9957 7.18365 10.7721V9.51051H12.4049H12.4649V9.45051V7.87735V7.81735H12.4049H7.18365V5.93372C7.18365 5.05749 7.51613 4.21767 8.10714 3.59888C8.69806 2.98019 9.49891 2.63315 10.3334 2.63315C11.1678 2.63315 11.9686 2.98019 12.5596 3.59888C13.1506 4.21767 13.4831 5.05749 13.4831 5.93372V10.7375C13.4831 10.9612 13.5679 11.1762 13.7197 11.3351C13.8716 11.4942 14.0782 11.5841 14.2943 11.5841C14.5104 11.5841 14.717 11.4942 14.8689 11.3351C15.0207 11.1762 15.1056 10.9612 15.1056 10.7375V9.51051H18.1042V21.6412H2.56253V9.51051H4.48301H4.54301V9.45051V7.87735V7.81735H4.48301H1H0.94V7.87735V21.8588C0.94 22.2493 1.08813 22.6243 1.3526 22.9012C1.61717 23.1782 1.97661 23.3343 2.35201 23.3343H18.3147C18.6901 23.3343 19.0495 23.1782 19.3141 22.9012C19.5786 22.6243 19.7267 22.2493 19.7267 21.8588V7.87735Z" fill="#2B2E34" stroke="#2B2E34" stroke-width="0.12"/>
</svg>
