<svg width="110" height="36" viewBox="0 0 110 36" fill="none" xmlns="http://www.w3.org/2000/svg">
<path d="M0 2C0 0.895431 0.89543 0 2 0H110V36H0V2Z" fill="#F31B4F"/>
<path d="M43.06 23L47.71 12.35H49.24L53.89 23H52.06L50.845 20.21H46.075L44.875 23H43.06ZM48.46 14.72L46.75 18.65H50.17L48.46 14.72ZM60.047 23L56.717 19.805V23H55.067V15.5H56.717V18.71L59.672 15.5H61.682L58.277 19.19L62.222 23H60.047ZM71.0437 21.53V24.875H69.5437V23H63.1237V15.5H64.7737V21.53H68.2087V15.5H69.8587V21.53H71.0437ZM74.0859 23H72.6159V15.5H74.2659V20.495L78.0909 15.5H79.5609V23H77.9109V18.005L74.0859 23ZM80.5708 23L83.3758 20.12C82.8658 19.94 82.4708 19.66 82.1908 19.28C81.9108 18.9 81.7708 18.455 81.7708 17.945C81.7708 17.225 82.0108 16.64 82.4908 16.19C82.9708 15.73 83.6458 15.5 84.5158 15.5H87.5458V23H85.8958V20.435H85.0558L82.5208 23H80.5708ZM84.6058 19.055H85.8958V16.895H84.6058C83.7758 16.895 83.3608 17.265 83.3608 18.005C83.3608 18.335 83.4708 18.595 83.6908 18.785C83.9208 18.965 84.2258 19.055 84.6058 19.055Z" fill="white" fill-opacity="0.9"/>
<circle cx="20" cy="14" r="2.25" stroke="white" stroke-opacity="0.9" stroke-width="1.5"/>
<circle cx="28" cy="23" r="2.25" stroke="white" stroke-opacity="0.9" stroke-width="1.5"/>
<line x1="18.0424" y1="23.9402" x2="29.9402" y2="12.9576" stroke="white" stroke-opacity="0.9" stroke-width="1.5" stroke-linecap="round"/>
</svg>
