<svg width="15" height="15" viewBox="0 0 15 15" fill="none" xmlns="http://www.w3.org/2000/svg">
<path d="M7.50003 5.02677C6.13811 5.02677 5.02669 6.1382 5.02669 7.50011C5.02669 8.86203 6.13811 9.97345 7.50003 9.97345C8.86194 9.97345 9.97337 8.86203 9.97337 7.50011C9.97337 6.1382 8.86194 5.02677 7.50003 5.02677ZM14.9182 7.50011C14.9182 6.47589 14.9275 5.46095 14.8699 4.43859C14.8124 3.25109 14.5415 2.19718 13.6732 1.32882C12.803 0.458608 11.7509 0.189566 10.5634 0.132046C9.53919 0.0745265 8.52425 0.0838039 7.50188 0.0838039C6.47766 0.0838039 5.46272 0.0745265 4.44036 0.132046C3.25286 0.189566 2.19895 0.460464 1.33059 1.32882C0.460379 2.19904 0.191336 3.25109 0.133816 4.43859C0.0762965 5.46281 0.0855739 6.47775 0.0855739 7.50011C0.0855739 8.52248 0.0762965 9.53927 0.133816 10.5616C0.191336 11.7491 0.462234 12.803 1.33059 13.6714C2.20081 14.5416 3.25286 14.8107 4.44036 14.8682C5.46458 14.9257 6.47952 14.9164 7.50188 14.9164C8.5261 14.9164 9.54104 14.9257 10.5634 14.8682C11.7509 14.8107 12.8048 14.5398 13.6732 13.6714C14.5434 12.8012 14.8124 11.7491 14.8699 10.5616C14.9293 9.53927 14.9182 8.52433 14.9182 7.50011ZM7.50003 11.3057C5.39407 11.3057 3.69446 9.60607 3.69446 7.50011C3.69446 5.39416 5.39407 3.69455 7.50003 3.69455C9.60598 3.69455 11.3056 5.39416 11.3056 7.50011C11.3056 9.60607 9.60598 11.3057 7.50003 11.3057ZM11.4615 4.42746C10.9698 4.42746 10.5727 4.03039 10.5727 3.53869C10.5727 3.04699 10.9698 2.64992 11.4615 2.64992C11.9532 2.64992 12.3502 3.04699 12.3502 3.53869C12.3504 3.65544 12.3275 3.77108 12.2829 3.87898C12.2383 3.98687 12.1728 4.08491 12.0902 4.16747C12.0077 4.25003 11.9096 4.31549 11.8017 4.3601C11.6938 4.40471 11.5782 4.4276 11.4615 4.42746Z" fill="#7E838C"/>
</svg>
