<svg width="21" height="13" viewBox="0 0 21 13" fill="none" xmlns="http://www.w3.org/2000/svg">
<path d="M20.4781 1.14061C20.6239 0.656234 20.4781 0.301025 19.7885 0.301025H17.5041C16.9229 0.301025 16.6573 0.608318 16.5114 0.945818C16.5114 0.945818 15.35 3.77811 13.7041 5.61457C13.1729 6.14894 12.9302 6.31769 12.6406 6.31769C12.4958 6.31769 12.2854 6.14894 12.2854 5.66457V1.14061C12.2854 0.559359 12.1177 0.301025 11.6333 0.301025H8.04373C7.68123 0.301025 7.46248 0.569776 7.46248 0.826026C7.46248 1.37603 8.2854 1.50311 8.36977 3.05311V6.41561C8.36977 7.15207 8.23748 7.28644 7.94581 7.28644C7.17186 7.28644 5.28852 4.44373 4.17081 1.18957C3.9531 0.557276 3.73331 0.302067 3.14998 0.302067H0.866646C0.213521 0.302067 0.083313 0.609359 0.083313 0.946859C0.083313 1.55311 0.857271 4.55311 3.68852 8.52082C5.57602 11.2302 8.23331 12.6989 10.6541 12.6989C12.1052 12.6989 12.2844 12.3729 12.2844 11.8104V9.76248C12.2844 9.1104 12.4229 8.97915 12.8823 8.97915C13.2198 8.97915 13.801 9.14998 15.1562 10.4552C16.7041 12.0031 16.9604 12.6979 17.8302 12.6979H20.1135C20.7656 12.6979 21.0916 12.3719 20.9041 11.7281C20.6989 11.0875 19.9594 10.1552 18.9781 9.05207C18.4448 8.4229 17.6479 7.74582 17.4052 7.40728C17.0666 6.97082 17.1646 6.77811 17.4052 6.39061C17.4062 6.39165 20.1885 2.4729 20.4781 1.14061Z" fill="#7E838C"/>
</svg>
