<svg width="186" height="38" viewBox="0 0 186 38" fill="none" xmlns="http://www.w3.org/2000/svg">
<path d="M36.396 18.2895H44.2117V16.0211H31.8389C31.8389 15.1917 32.1737 14.5576 32.8434 14.1185C33.5294 13.6795 34.4359 13.46 35.563 13.46H44.6527C45.1427 13.46 45.6082 13.525 46.0492 13.6551C46.4903 13.7852 46.8741 13.964 47.2008 14.1917C47.5438 14.4031 47.8133 14.6633 48.0093 14.9722C48.2053 15.2812 48.3033 15.6227 48.3033 15.9967V23.1433C48.3033 23.5336 48.2053 23.8832 48.0093 24.1922C47.8133 24.5011 47.5438 24.7694 47.2008 24.9971C46.8741 25.2085 46.4903 25.3792 46.0492 25.5093C45.6082 25.6231 45.1346 25.68 44.6282 25.68H35.563C35.0403 25.68 34.5503 25.6313 34.0929 25.5337C33.6519 25.4361 33.2599 25.2898 32.9169 25.0946C32.5739 24.8833 32.3044 24.6231 32.1084 24.3141C31.9287 23.9889 31.8389 23.6068 31.8389 23.1677H44.2117V20.8749H36.396V18.2895Z" fill="#2B2E34"/>
<path d="M62.475 25.68C61.9687 25.68 61.544 25.6394 61.201 25.5581C60.8743 25.4768 60.5803 25.3792 60.319 25.2654C60.074 25.1516 59.8534 25.0215 59.6574 24.8751C59.4614 24.7288 59.2654 24.5906 59.0694 24.4605L53.8753 20.0456V23.3385C53.8753 23.7775 53.7691 24.1515 53.5568 24.4605C53.3608 24.7532 53.0913 24.9889 52.7483 25.1678C52.4052 25.3467 52.0051 25.4768 51.5477 25.5581C51.1067 25.6394 50.6412 25.68 50.1512 25.68H49.7837V13.46H53.8753V18.8505L59.2164 13.46H63.7491L58.1629 19.1919L65.6111 25.68H62.475Z" fill="#2B2E34"/>
<path d="M83.5469 23.2165C83.5469 23.6556 83.4489 24.0296 83.2529 24.3385C83.0569 24.6312 82.7874 24.8833 82.4444 25.0946C82.1177 25.2898 81.7257 25.4361 81.2684 25.5337C80.811 25.6313 80.321 25.68 79.7983 25.68H70.7331C70.2267 25.68 69.753 25.6231 69.312 25.5093C68.871 25.3792 68.479 25.2085 68.136 24.9971C67.8093 24.7694 67.548 24.5093 67.352 24.2166C67.1723 23.9076 67.0825 23.558 67.0825 23.1677V15.9479C67.0825 15.5901 67.1723 15.2568 67.352 14.9478C67.548 14.6226 67.8093 14.3543 68.136 14.1429C68.479 13.9153 68.871 13.7445 69.312 13.6307C69.753 13.5169 70.2267 13.46 70.7331 13.46H79.7983C80.909 13.46 81.8074 13.6795 82.4934 14.1185C83.1957 14.5413 83.5469 15.1674 83.5469 15.9967V23.2165ZM79.4553 16.0211H71.1741V23.1677H79.4553V16.0211Z" fill="#2B2E34"/>
<path d="M97.4001 25.68V20.8749H89.1189V25.68H85.0273V15.9479C85.0273 15.5901 85.1253 15.2649 85.3213 14.9722C85.5173 14.6633 85.7786 14.4031 86.1053 14.1917C86.4483 13.964 86.8403 13.7852 87.2813 13.6551C87.7224 13.525 88.196 13.46 88.7024 13.46H89.1189V18.3382H97.4246V13.46H101.492V25.68H97.4001Z" fill="#2B2E34"/>
<path d="M125.036 23.2165C125.036 23.7369 124.897 24.1596 124.619 24.4849C124.358 24.8101 124.023 25.0621 123.615 25.241C123.223 25.4199 122.782 25.5418 122.292 25.6069C121.818 25.6556 121.369 25.68 120.944 25.68H112.369V25.4361C112.369 24.867 112.516 24.4279 112.81 24.119C113.12 23.7938 113.472 23.5661 113.864 23.436C114.272 23.2897 114.688 23.2084 115.113 23.1921C115.554 23.1759 115.897 23.1677 116.142 23.1677H120.944V20.8749H112.32C112.075 20.8749 111.74 20.8912 111.316 20.9237C110.891 20.94 110.466 20.9075 110.041 20.8262C109.633 20.7286 109.282 20.5416 108.988 20.2652C108.694 19.9725 108.547 19.5253 108.547 18.9236V13.4844H108.89C109.151 13.4844 109.494 13.5006 109.919 13.5331C110.36 13.5657 110.777 13.647 111.169 13.777C111.577 13.9071 111.928 14.1185 112.222 14.4112C112.516 14.7039 112.663 15.1267 112.663 15.6796V18.2895H120.944V13.46H125.036V23.2165Z" fill="#2B2E34"/>
<path d="M142.98 18.2895C142.98 19.1513 142.564 19.8017 141.731 20.2408C140.898 20.6635 139.779 20.8749 138.374 20.8749H132.249C132.249 20.6148 132.29 20.3302 132.371 20.0212C132.469 19.696 132.608 19.4115 132.788 19.1675C132.984 18.9236 133.237 18.7204 133.547 18.5578C133.858 18.3789 134.225 18.2895 134.65 18.2895H138.864V16.0211H130.607V22.8262C130.607 23.9645 130.256 24.745 129.554 25.1678C129.194 25.3792 128.786 25.5174 128.329 25.5825C127.871 25.6475 127.406 25.68 126.932 25.68H126.516V13.46H139.232C140.342 13.46 141.241 13.6795 141.927 14.1185C142.629 14.5576 142.98 15.1917 142.98 16.0211V18.2895Z" fill="#2B2E34"/>
<path d="M144.461 16.0211C144.461 15.1917 144.804 14.5576 145.49 14.1185C146.192 13.6795 147.098 13.46 148.209 13.46H164.306C165.417 13.46 166.315 13.6795 167.001 14.1185C167.703 14.5576 168.055 15.1917 168.055 16.0211V20.1676C168.055 21.0294 167.638 21.6799 166.805 22.1189C165.972 22.5417 164.853 22.7531 163.449 22.7531H158.303V22.8262C158.303 23.9645 157.952 24.745 157.25 25.1678C156.891 25.3792 156.482 25.5174 156.025 25.5825C155.567 25.6475 155.102 25.68 154.628 25.68H154.212V22.7531H149.067C147.662 22.7531 146.543 22.5417 145.71 22.1189C144.877 21.6799 144.461 21.0294 144.461 20.1676V16.0211ZM158.303 20.1676H163.939V16.0211H158.303V20.1676ZM148.577 20.1676H154.212V16.0211H148.577V20.1676Z" fill="#2B2E34"/>
<path d="M186 23.2165C186 23.6556 185.902 24.0296 185.706 24.3385C185.51 24.6312 185.24 24.8833 184.897 25.0946C184.571 25.2898 184.179 25.4361 183.721 25.5337C183.264 25.6313 182.774 25.68 182.251 25.68H173.186C172.68 25.68 172.206 25.6231 171.765 25.5093C171.324 25.3792 170.932 25.2085 170.589 24.9971C170.262 24.7694 170.001 24.5093 169.805 24.2166C169.625 23.9076 169.535 23.558 169.535 23.1677V15.9479C169.535 15.5901 169.625 15.2568 169.805 14.9478C170.001 14.6226 170.262 14.3543 170.589 14.1429C170.932 13.9153 171.324 13.7445 171.765 13.6307C172.206 13.5169 172.68 13.46 173.186 13.46H182.251C183.362 13.46 184.26 13.6795 184.946 14.1185C185.649 14.5413 186 15.1674 186 15.9967V23.2165ZM181.908 16.0211H173.627V23.1677H181.908V16.0211Z" fill="#2B2E34"/>
<path d="M17.0357 21.771C15.2791 24.8082 12.1388 31.1782 12.2437 34.5714C12.4494 34.8439 12.7141 35.0395 13.0136 35.1518C13.4869 34.7596 14.0706 34.1446 14.4864 33.3308L16.6048 32.4876C15.7873 34.806 14.15 35.5782 13.0136 35.1518C12.7675 35.3557 12.5512 35.4994 12.4038 35.5796C12.3066 35.2856 12.2553 34.9467 12.2437 34.5714C11.7442 33.9099 11.5923 32.7952 12.1339 31.3185C12.9947 28.9714 14.5217 25.8553 17.0357 21.771Z" fill="url(#paint0_linear_1_1676)"/>
<path d="M12.4042 35.5804C13.1769 35.1548 14.0938 34.1229 14.4802 33.3427C15.3934 32.988 15.6201 32.9317 15.7957 32.8962C15.2977 34.1069 14.5522 35.1587 13.9001 35.8288C13.4102 36.3322 12.6244 36.2475 12.4042 35.5804Z" fill="url(#paint1_linear_1_1676)"/>
<path d="M22.971 18.2638C22.233 15.4457 20.1681 14.4946 20.0616 15.5514C19.2101 17.9467 17.8618 20.2834 17.2941 21.1524C12.5926 30.0866 14.6922 32.8123 15.662 32.9532C24.149 29.6278 24.0946 21.7629 22.971 18.2638Z" fill="url(#paint2_linear_1_1676)"/>
<path d="M10.0512 13.8274C10.0371 13.9162 10.0223 14.0016 10.0067 14.0833C10.0222 13.9976 10.037 13.9123 10.0512 13.8274C10.4563 11.2728 10.2154 5.85135 6.20601 2.64935C5.95736 3.18034 5.97157 4.76623 7.30716 7.71145L6.02841 9.80001C4.83254 7.67605 2.72496 2.22456 4.57205 0.985583C6.26078 0.14411 11.5247 5.01172 10.0512 13.8274Z" fill="url(#paint3_radial_1_1676)"/>
<path d="M4.88164 2.58255C5.29683 2.30448 6.12978 2.51638 6.26818 2.69017C5.88067 4.0805 6.80767 6.57973 7.33819 7.72675L6.34292 9.36608C4.40536 4.86143 4.43185 2.99964 4.88164 2.58255Z" fill="url(#paint4_linear_1_1676)"/>
<path d="M15.0176 17.0468C15.5849 8.97144 11.5904 3.55273 9.52222 1.85278C19.1941 7.25508 22.463 14.9365 22.8884 18.1019C21.5837 13.6562 17.0976 15.5461 15.0176 17.0468Z" fill="url(#paint5_linear_1_1676)"/>
<path opacity="0.25" d="M21.1413 15.6421C19.4513 10.8194 14.2637 6.1988 11.8811 4.56104C15.0148 9.19557 15.2495 14.469 15.05 16.9663C17.5851 15.2588 19.4865 14.8755 21.1413 15.6421Z" fill="url(#paint6_linear_1_1676)"/>
<path d="M20.2425 15.8306C22.5622 18.9097 25.046 26.3656 16.4241 31.5555C17.3638 26.7017 19.4432 16.7614 20.2425 15.8306Z" fill="url(#paint7_linear_1_1676)"/>
<path d="M15.6666 32.952C13.9374 31.2954 15.9499 24.58 17.1627 21.4023C13.0127 28.9716 12.1239 32.5391 12.2727 33.7479C14.3621 33.5337 14.2617 33.3805 15.6666 32.952Z" fill="#27569F"/>
<path d="M8.90985 33.3028C8.51077 27.6848 11.1903 21.4105 12.58 18.9756C3.17309 23.4361 0.56007 20.8341 0.429418 18.9756C-1.79402 28.4612 5.15661 32.4794 8.90985 33.3028Z" fill="url(#paint8_linear_1_1676)"/>
<path d="M8.90485 32.3418C8.79885 27.0795 11.2251 21.2442 12.5796 18.9756C5.1241 22.2733 2.36804 21.6769 1.16668 20.3789C0.149062 28.0688 5.92501 31.5466 8.90485 32.3418Z" fill="url(#paint9_linear_1_1676)"/>
<path d="M0.437378 19.0381C1.54966 15.0698 4.3589 10.9598 6.60486 9.36544C9.628 8.40172 10.1461 11.6684 10.1342 13.44C9.67791 17.9184 7.56742 20.538 6.56921 21.2348C2.54074 22.4748 0.544329 20.9513 0.437378 19.0381Z" fill="url(#paint10_linear_1_1676)"/>
<path d="M5.24146 10.5829L8.75223 5.78418C10.2116 8.00968 10.3467 11.715 10.1325 13.323C9.6349 8.11582 6.69854 9.16879 5.24146 10.5829Z" fill="#148CCC"/>
<defs>
<linearGradient id="paint0_linear_1_1676" x1="14.1091" y1="21.771" x2="12.5442" y2="37.7999" gradientUnits="userSpaceOnUse">
<stop stop-color="#1EA99E"/>
<stop offset="0.359375" stop-color="#D0FEFA"/>
<stop offset="1" stop-color="#1EA99E"/>
</linearGradient>
<linearGradient id="paint1_linear_1_1676" x1="15.25" y1="33.1305" x2="12.1925" y2="37.1096" gradientUnits="userSpaceOnUse">
<stop stop-color="#188C83"/>
<stop offset="1" stop-color="white" stop-opacity="0"/>
</linearGradient>
<linearGradient id="paint2_linear_1_1676" x1="20.7713" y1="15.4457" x2="15.7294" y2="32.9374" gradientUnits="userSpaceOnUse">
<stop stop-color="#2D63C8"/>
<stop offset="1" stop-color="#08A7FA"/>
</linearGradient>
<radialGradient id="paint3_radial_1_1676" cx="0" cy="0" r="1" gradientUnits="userSpaceOnUse" gradientTransform="translate(7.60909 6.13618) rotate(-117.029) scale(5.90136 2.88798)">
<stop stop-color="#2AAFA4"/>
<stop offset="0.558139" stop-color="#D0FDF9"/>
<stop offset="1" stop-color="#2AAFA4"/>
</radialGradient>
<linearGradient id="paint4_linear_1_1676" x1="5.08924" y1="2.47827" x2="6.90355" y2="8.41728" gradientUnits="userSpaceOnUse">
<stop stop-color="#ADFFF8"/>
<stop offset="1" stop-color="#1EA99E"/>
</linearGradient>
<linearGradient id="paint5_linear_1_1676" x1="16.223" y1="0.0238792" x2="21.7106" y2="15.6324" gradientUnits="userSpaceOnUse">
<stop stop-color="#00AFFF"/>
<stop offset="1" stop-color="#4268D5"/>
</linearGradient>
<linearGradient id="paint6_linear_1_1676" x1="17.8316" y1="10.241" x2="15.0414" y2="12.8136" gradientUnits="userSpaceOnUse">
<stop stop-color="white" stop-opacity="0.73"/>
<stop offset="1" stop-color="white" stop-opacity="0"/>
</linearGradient>
<linearGradient id="paint7_linear_1_1676" x1="22.4194" y1="24.3982" x2="19.4286" y2="23.4252" gradientUnits="userSpaceOnUse">
<stop stop-color="white" stop-opacity="0.18"/>
<stop offset="1" stop-color="white" stop-opacity="0"/>
</linearGradient>
<linearGradient id="paint8_linear_1_1676" x1="12.58" y1="19.0109" x2="2.1753" y2="30.051" gradientUnits="userSpaceOnUse">
<stop stop-color="#0D9FF4"/>
<stop offset="1" stop-color="#2B67CB"/>
</linearGradient>
<linearGradient id="paint9_linear_1_1676" x1="2.1207" y1="27.0795" x2="5.73696" y2="23.8262" gradientUnits="userSpaceOnUse">
<stop stop-color="white" stop-opacity="0.25"/>
<stop offset="1" stop-color="white" stop-opacity="0"/>
</linearGradient>
<linearGradient id="paint10_linear_1_1676" x1="8.28042" y1="9.61346" x2="2.74001" y2="21.6506" gradientUnits="userSpaceOnUse">
<stop stop-color="#06AAFC"/>
<stop offset="1" stop-color="#1B4CAA"/>
</linearGradient>
</defs>
</svg>
