<svg width="22" height="23" viewBox="0 0 22 23" fill="none" xmlns="http://www.w3.org/2000/svg">
<path d="M18.76 15.6163C17.4636 14.5313 16.148 13.874 14.8675 14.9574L14.1029 15.6122C13.5435 16.0875 12.5034 18.3084 8.48203 13.7814C4.46146 9.26009 6.85404 8.55612 7.41429 8.0849L8.18306 7.42928C9.45681 6.34341 8.97612 4.97645 8.05744 3.56932L7.50306 2.71702C6.58019 1.31318 5.57526 0.391214 4.29816 1.47544L3.60811 2.0655C3.04367 2.46788 1.46593 3.77584 1.08321 6.26064C0.622621 9.24206 2.07559 12.6562 5.40442 16.4022C8.72907 20.1499 11.9842 22.0324 15.0677 21.9996C17.6303 21.9725 19.1779 20.6269 19.6619 20.1376L20.3545 19.5467C21.6282 18.4633 20.8368 17.3603 19.5396 16.2728L18.76 15.6163Z" stroke="#2B2E34" stroke-width="2"/>
</svg>
