<svg width="6" height="8" viewBox="0 0 6 8" fill="none" xmlns="http://www.w3.org/2000/svg">
<path d="M0.5 5.32V4.26H1.36V0.9H3.45C4.17 0.9 4.75 1.10333 5.19 1.51C5.63667 1.91667 5.86 2.45 5.86 3.11C5.86 3.77 5.63667 4.30333 5.19 4.71C4.75 5.11667 4.17 5.32 3.45 5.32H2.46V6.07H4.32V6.63H2.46V8H1.36V6.63H0.5V6.07H1.36V5.32H0.5ZM2.46 4.26H3.43C3.83667 4.26 4.15 4.16 4.37 3.96C4.59667 3.75333 4.71 3.47 4.71 3.11C4.71 2.75 4.59667 2.47 4.37 2.27C4.15 2.07 3.83667 1.97 3.43 1.97H2.46V4.26Z" fill="#2B2E34"/>
</svg>
