<svg width="5" height="6" viewBox="0 0 5 6" fill="none" xmlns="http://www.w3.org/2000/svg">
<path d="M0.4 3.856V3.008H1.088V0.32H2.76C3.336 0.32 3.8 0.482666 4.152 0.808C4.50933 1.13333 4.688 1.56 4.688 2.088C4.688 2.616 4.50933 3.04267 4.152 3.368C3.8 3.69333 3.336 3.856 2.76 3.856H1.968V4.456H3.456V4.904H1.968V6H1.088V4.904H0.4V4.456H1.088V3.856H0.4ZM1.968 3.008H2.744C3.06933 3.008 3.32 2.928 3.496 2.768C3.67733 2.60267 3.768 2.376 3.768 2.088C3.768 1.8 3.67733 1.576 3.496 1.416C3.32 1.256 3.06933 1.176 2.744 1.176H1.968V3.008Z" fill="#7E838C"/>
</svg>
