<svg width="8" height="10" viewBox="0 0 8 10" fill="none" xmlns="http://www.w3.org/2000/svg">
<path d="M0.65 6.516V5.138H1.768V0.77H4.485C5.421 0.77 6.175 1.03433 6.747 1.563C7.32767 2.09167 7.618 2.785 7.618 3.643C7.618 4.501 7.32767 5.19433 6.747 5.723C6.175 6.25167 5.421 6.516 4.485 6.516H3.198V7.491H5.616V8.219H3.198V10H1.768V8.219H0.65V7.491H1.768V6.516H0.65ZM3.198 5.138H4.459C4.98767 5.138 5.395 5.008 5.681 4.748C5.97567 4.47933 6.123 4.111 6.123 3.643C6.123 3.175 5.97567 2.811 5.681 2.551C5.395 2.291 4.98767 2.161 4.459 2.161H3.198V5.138Z" fill="#2B2E34"/>
</svg>
